<?xml version="1.0" encoding="utf-8"?><svg xmlns="http://www.w3.org/2000/svg" xmlns:xlink="http://www.w3.org/1999/xlink"><symbol viewBox="0 0 24 24" id="email" xmlns="http://www.w3.org/2000/svg"><path d="M3 8l7.89 5.26a2 2 0 002.22 0L21 8M5 19h14a2 2 0 002-2V7a2 2 0 00-2-2H5a2 2 0 00-2 2v10a2 2 0 002 2z"/></symbol><symbol viewBox="0 0 24 24" id="experience" xmlns="http://www.w3.org/2000/svg"><path d="M12 14l9-5-9-5-9 5 9 5z"/><path d="M12 14l6.16-3.422a12.083 12.083 0 01.665 6.479A11.952 11.952 0 0012 20.055a11.952 11.952 0 00-6.824-2.998 12.078 12.078 0 01.665-6.479L12 14z"/><path d="M12 14l9-5-9-5-9 5 9 5zm0 0l6.16-3.422a12.083 12.083 0 01.665 6.479A11.952 11.952 0 0012 20.055a11.952 11.952 0 00-6.824-2.998 12.078 12.078 0 01.665-6.479L12 14zm-4 6v-7.5l4-2.222"/></symbol><symbol viewBox="0 0 24 24" id="mark" xmlns="http://www.w3.org/2000/svg"><path d="M17.657 16.657L13.414 20.9a1.998 1.998 0 01-2.827 0l-4.244-4.243a8 8 0 1111.314 0z"/><path d="M15 11a3 3 0 11-6 0 3 3 0 016 0z"/></symbol><symbol viewBox="0 0 24 24" id="paper" xmlns="http://www.w3.org/2000/svg"><path d="M12 19l9 2-9-18-9 18 9-2zm0 0v-8"/></symbol><symbol viewBox="0 0 24 24" id="phone" xmlns="http://www.w3.org/2000/svg"><path d="M3 5a2 2 0 012-2h3.28a1 1 0 01.948.684l1.498 4.493a1 1 0 01-.502 1.21l-2.257 1.13a11.042 11.042 0 005.516 5.516l1.13-2.257a1 1 0 011.21-.502l4.493 1.498a1 1 0 01.684.949V19a2 2 0 01-2 2h-1C9.716 21 3 14.284 3 6V5z"/></symbol><symbol viewBox="0 0 24 24" id="user" xmlns="http://www.w3.org/2000/svg"><path d="M16 7a4 4 0 11-8 0 4 4 0 018 0zm-4 7a7 7 0 00-7 7h14a7 7 0 00-7-7z"/></symbol></svg>