<svg width="16" height="16" viewBox="0 0 16 16" fill="none" xmlns="http://www.w3.org/2000/svg">
<path d="M16 3.69189H0V4.92252H16V3.69189Z" fill="#F5F5F5"/>
<path d="M15.1645 1.23083H0.83546C0.532085 1.58671 0.298616 2.00399 0.156616 2.46162H15.8433C15.7013 2.00399 15.4678 1.58671 15.1645 1.23083Z" fill="#F5F5F5"/>
<path d="M16 6.15381H0V7.38443H16V6.15381Z" fill="#F5F5F5"/>
<path d="M16 8.61542H0V9.84604H16V8.61542Z" fill="#F5F5F5"/>
<path d="M16 11.0773H0V12.3079H16V11.0773Z" fill="#F5F5F5"/>
<path d="M15.8433 13.5386H0.156616C0.298585 13.9962 0.532085 14.4134 0.83546 14.7693H15.1644C15.4678 14.4134 15.7013 13.9962 15.8433 13.5386Z" fill="#F5F5F5"/>
<path d="M12.5 0H3.49995C2.43282 0 1.47742 0.477719 0.835449 1.23078H15.1644C14.5225 0.477719 13.5671 0 12.5 0Z" fill="#FF4B55"/>
<path d="M16 4.92352H0V6.15415H16V4.92352Z" fill="#FF4B55"/>
<path d="M16 3.50035C16 3.13876 15.9452 2.79001 15.8433 2.46191H0.156656C0.0548438 2.79001 0 3.13876 0 3.50035V3.69266H16V3.50035Z" fill="#FF4B55"/>
<path d="M16 7.38434H0V8.61496H16V7.38434Z" fill="#FF4B55"/>
<path d="M16 12.5001V12.3078H0V12.5001C0 12.8617 0.0548438 13.2105 0.156656 13.5386H15.8433C15.9452 13.2105 16 12.8617 16 12.5001Z" fill="#FF4B55"/>
<path d="M15.1644 14.7692H0.835449C1.47742 15.5222 2.43282 15.9999 3.49995 15.9999H12.4999C13.5671 15.9999 14.5225 15.5222 15.1644 14.7692Z" fill="#FF4B55"/>
<path d="M16 9.84619H0V11.0768H16V9.84619Z" fill="#FF4B55"/>
<path d="M8.61537 0H3.5C1.567 0 0 1.567 0 3.5V8.61537H8.61537V0Z" fill="#41479B"/>
<path d="M0.9295 1.34583C0.921313 1.37174 0.950781 1.39318 0.972906 1.37736L1.14362 1.25536L1.31434 1.37736C1.33644 1.39318 1.36594 1.37174 1.35775 1.34583L1.29447 1.14577L1.46328 1.02111C1.48512 1.00496 1.47387 0.970303 1.44669 0.970084L1.23687 0.968459L1.20106 0.861084C1.11112 0.93949 1.02534 1.02249 0.943875 1.10958L0.992844 1.14577L0.9295 1.34583Z" fill="#F5F5F5"/>
<path d="M1.17044 2.42949L1.23681 2.62856L1.44663 2.63018C1.47378 2.6304 1.48506 2.66506 1.46322 2.68121L1.29441 2.80587L1.35769 3.00593C1.36588 3.03184 1.33641 3.05324 1.31428 3.03746L1.14356 2.91543L0.972844 3.03746C0.95075 3.05327 0.92125 3.03184 0.929437 3.00593L0.992719 2.80587L0.823906 2.68121C0.802062 2.66509 0.813312 2.6304 0.840468 2.63018L1.05028 2.62856L1.11666 2.42949C1.12538 2.40371 1.16184 2.40371 1.17044 2.42949Z" fill="#F5F5F5"/>
<path d="M1.17044 4.27184L1.23681 4.4709L1.44663 4.47252C1.47378 4.47274 1.48506 4.5074 1.46322 4.52356L1.29441 4.64821L1.35769 4.84827C1.36588 4.87418 1.33641 4.89558 1.31428 4.8798L1.14356 4.7578L0.972844 4.8798C0.95075 4.89558 0.92125 4.87418 0.929437 4.84827L0.992719 4.64821L0.823906 4.52356C0.802062 4.50743 0.813312 4.47274 0.840468 4.47252L1.05028 4.4709L1.11666 4.27184C1.12538 4.24606 1.16184 4.24606 1.17044 4.27184Z" fill="#F5F5F5"/>
<path d="M1.17044 5.96385L1.23681 6.16292L1.44663 6.16454C1.47378 6.16476 1.48506 6.19942 1.46322 6.21557L1.29441 6.34023L1.35769 6.54029C1.36588 6.5662 1.33641 6.5876 1.31428 6.57182L1.14356 6.44979L0.972844 6.57182C0.95075 6.5876 0.92125 6.5662 0.929437 6.54029L0.992719 6.34023L0.823906 6.21557C0.802062 6.19945 0.813312 6.16476 0.840468 6.16454L1.05028 6.16292L1.11666 5.96385C1.12538 5.93807 1.16184 5.93807 1.17044 5.96385Z" fill="#F5F5F5"/>
<path d="M1.17044 7.50377L1.23681 7.70283L1.44663 7.70446C1.47378 7.70468 1.48506 7.73933 1.46322 7.75549L1.29441 7.88014L1.35769 8.08021C1.36588 8.10611 1.33641 8.12752 1.31428 8.11174L1.14356 7.98974L0.972844 8.11174C0.95075 8.12752 0.92125 8.10611 0.929437 8.08021L0.992719 7.88014L0.823906 7.75549C0.802062 7.73936 0.813312 7.70468 0.840468 7.70446L1.05028 7.70283L1.11666 7.50377C1.12538 7.47799 1.16184 7.47799 1.17044 7.50377Z" fill="#F5F5F5"/>
<path d="M1.97863 1.55571L2.04501 1.75478L2.25482 1.7564C2.28197 1.75662 2.29326 1.79128 2.27141 1.8074L2.1026 1.93206L2.16588 2.13212C2.17407 2.15803 2.1446 2.17946 2.12247 2.16365L1.95182 2.04162L1.7811 2.16365C1.75901 2.17946 1.72951 2.15803 1.73769 2.13212L1.80098 1.93206L1.63219 1.8074C1.61035 1.79128 1.6216 1.75659 1.64876 1.7564L1.85857 1.75478L1.92494 1.55571C1.93357 1.52993 1.97004 1.52993 1.97863 1.55571Z" fill="#F5F5F5"/>
<path d="M1.97851 3.39714L2.04489 3.59621L2.2547 3.59783C2.28185 3.59805 2.29313 3.63271 2.27129 3.64886L2.10248 3.77352L2.16576 3.97358C2.17395 3.99949 2.14448 4.02093 2.12235 4.00511L1.95164 3.88308L1.78092 4.00511C1.75882 4.02093 1.72932 3.99949 1.73751 3.97358L1.80079 3.77352L1.63201 3.64886C1.61017 3.63274 1.62142 3.59805 1.64857 3.59783L1.85839 3.59621L1.92476 3.39714C1.93345 3.37136 1.96992 3.37136 1.97851 3.39714Z" fill="#F5F5F5"/>
<path d="M1.97851 5.14675L2.04489 5.34582L2.2547 5.34744C2.28185 5.34766 2.29313 5.38232 2.27129 5.39847L2.10248 5.52313L2.16576 5.72319C2.17395 5.7491 2.14448 5.77051 2.12235 5.75473L1.95164 5.63269L1.78092 5.75473C1.75882 5.77054 1.72932 5.7491 1.73751 5.72319L1.80079 5.52313L1.63201 5.39847C1.61017 5.38235 1.62142 5.34766 1.64857 5.34744L1.85839 5.34582L1.92476 5.14675C1.93345 5.121 1.96992 5.121 1.97851 5.14675Z" fill="#F5F5F5"/>
<path d="M1.97851 6.71807L2.04489 6.91713L2.2547 6.91875C2.28185 6.91897 2.29313 6.95363 2.27129 6.96978L2.10248 7.09444L2.16576 7.2945C2.17395 7.32041 2.14448 7.34184 2.12235 7.32603L1.95164 7.20403L1.78092 7.32603C1.75882 7.34184 1.72932 7.32041 1.73751 7.2945L1.80079 7.09444L1.63201 6.96978C1.61017 6.95366 1.62142 6.91897 1.64857 6.91875L1.85839 6.91713L1.92476 6.71807C1.93345 6.69229 1.96992 6.69229 1.97851 6.71807Z" fill="#F5F5F5"/>
<path d="M2.78686 0.769313L2.85324 0.968375L3.06305 0.97C3.0902 0.970219 3.10149 1.00488 3.07964 1.021L2.91083 1.14566L2.97411 1.34572C2.9823 1.37163 2.95283 1.39303 2.9307 1.37725L2.75999 1.25522L2.58927 1.37725C2.56717 1.39306 2.53767 1.37163 2.54586 1.34572L2.60914 1.14566L2.44036 1.021C2.41852 1.00488 2.42977 0.970188 2.45692 0.97L2.66674 0.968375L2.73311 0.769313C2.7418 0.743563 2.77827 0.743563 2.78686 0.769313Z" fill="#F5F5F5"/>
<path d="M2.78686 2.42949L2.85324 2.62856L3.06305 2.63018C3.0902 2.6304 3.10149 2.66506 3.07964 2.68121L2.91083 2.80587L2.97411 3.00593C2.9823 3.03184 2.95283 3.05324 2.9307 3.03746L2.75999 2.91543L2.58927 3.03746C2.56717 3.05327 2.53767 3.03184 2.54586 3.00593L2.60914 2.80587L2.44036 2.68121C2.41852 2.66509 2.42977 2.6304 2.45692 2.63018L2.66674 2.62856L2.73311 2.42949C2.7418 2.40371 2.77827 2.40371 2.78686 2.42949Z" fill="#F5F5F5"/>
<path d="M2.78686 4.27184L2.85324 4.4709L3.06305 4.47252C3.0902 4.47274 3.10149 4.5074 3.07964 4.52356L2.91083 4.64821L2.97411 4.84827C2.9823 4.87418 2.95283 4.89558 2.9307 4.8798L2.75999 4.7578L2.58927 4.8798C2.56717 4.89558 2.53767 4.87418 2.54586 4.84827L2.60914 4.64821L2.44036 4.52356C2.41852 4.50743 2.42977 4.47274 2.45692 4.47252L2.66674 4.4709L2.73311 4.27184C2.7418 4.24606 2.77827 4.24606 2.78686 4.27184Z" fill="#F5F5F5"/>
<path d="M2.78686 5.96385L2.85324 6.16292L3.06305 6.16454C3.0902 6.16476 3.10149 6.19942 3.07964 6.21557L2.91083 6.34023L2.97411 6.54029C2.9823 6.5662 2.95283 6.5876 2.9307 6.57182L2.75999 6.44979L2.58927 6.57182C2.56717 6.5876 2.53767 6.5662 2.54586 6.54029L2.60914 6.34023L2.44036 6.21557C2.41852 6.19945 2.42977 6.16476 2.45692 6.16454L2.66674 6.16292L2.73311 5.96385C2.7418 5.93807 2.77827 5.93807 2.78686 5.96385Z" fill="#F5F5F5"/>
<path d="M2.78686 7.50377L2.85324 7.70283L3.06305 7.70446C3.0902 7.70468 3.10149 7.73933 3.07964 7.75549L2.91083 7.88014L2.97411 8.08021C2.9823 8.10611 2.95283 8.12752 2.9307 8.11174L2.75999 7.98974L2.58927 8.11174C2.56717 8.12752 2.53767 8.10611 2.54586 8.08021L2.60914 7.88014L2.44036 7.75549C2.41852 7.73936 2.42977 7.70468 2.45692 7.70446L2.66674 7.70283L2.73311 7.50377C2.7418 7.47799 2.77827 7.47799 2.78686 7.50377Z" fill="#F5F5F5"/>
<path d="M3.59512 1.55571L3.66149 1.75478L3.87131 1.7564C3.89846 1.75662 3.90975 1.79128 3.88787 1.8074L3.71909 1.93206L3.78237 2.13212C3.79056 2.15803 3.76109 2.17946 3.73896 2.16365L3.56824 2.04162L3.39752 2.16365C3.37543 2.17946 3.34593 2.15803 3.35412 2.13212L3.4174 1.93206L3.24859 1.8074C3.22674 1.79128 3.23799 1.75659 3.26518 1.7564L3.47499 1.75478L3.54137 1.55571C3.55009 1.52993 3.58653 1.52993 3.59512 1.55571Z" fill="#F5F5F5"/>
<path d="M3.59512 3.39714L3.66149 3.59621L3.87131 3.59783C3.89846 3.59805 3.90975 3.63271 3.88787 3.64886L3.71909 3.77352L3.78237 3.97358C3.79056 3.99949 3.76109 4.02093 3.73896 4.00511L3.56824 3.88308L3.39752 4.00511C3.37543 4.02093 3.34593 3.99949 3.35412 3.97358L3.4174 3.77352L3.24859 3.64886C3.22674 3.63274 3.23799 3.59805 3.26518 3.59783L3.47499 3.59621L3.54137 3.39714C3.55009 3.37136 3.58653 3.37136 3.59512 3.39714Z" fill="#F5F5F5"/>
<path d="M3.59512 5.14675L3.66149 5.34582L3.87131 5.34744C3.89846 5.34766 3.90975 5.38232 3.88787 5.39847L3.71909 5.52313L3.78237 5.72319C3.79056 5.7491 3.76109 5.77051 3.73896 5.75473L3.56824 5.63269L3.39752 5.75473C3.37543 5.77054 3.34593 5.7491 3.35412 5.72319L3.4174 5.52313L3.24859 5.39847C3.22674 5.38235 3.23799 5.34766 3.26518 5.34744L3.47499 5.34582L3.54137 5.14675C3.55009 5.121 3.58653 5.121 3.59512 5.14675Z" fill="#F5F5F5"/>
<path d="M3.59512 6.71807L3.66149 6.91713L3.87131 6.91875C3.89846 6.91897 3.90975 6.95363 3.88787 6.96978L3.71909 7.09444L3.78237 7.2945C3.79056 7.32041 3.76109 7.34184 3.73896 7.32603L3.56824 7.20403L3.39752 7.32603C3.37543 7.34184 3.34593 7.32041 3.35412 7.2945L3.4174 7.09444L3.24859 6.96978C3.22674 6.95366 3.23799 6.91897 3.26518 6.91875L3.47499 6.91713L3.54137 6.71807C3.55009 6.69229 3.58653 6.69229 3.59512 6.71807Z" fill="#F5F5F5"/>
<path d="M4.40325 0.769313L4.46963 0.968375L4.67944 0.97C4.7066 0.970219 4.71788 1.00488 4.696 1.021L4.52722 1.14566L4.5905 1.34572C4.59869 1.37163 4.56922 1.39303 4.5471 1.37725L4.37638 1.25522L4.20566 1.37725C4.18357 1.39306 4.15407 1.37163 4.16225 1.34572L4.22554 1.14566L4.05675 1.021C4.03491 1.00488 4.04616 0.970188 4.07335 0.97L4.28316 0.968375L4.34954 0.769313C4.35822 0.743563 4.39466 0.743563 4.40325 0.769313Z" fill="#F5F5F5"/>
<path d="M4.40328 2.42962L4.46966 2.62868L4.67947 2.63031C4.70662 2.63053 4.71791 2.66518 4.69603 2.68134L4.52725 2.80599L4.59056 3.00603C4.59875 3.03193 4.56928 3.05334 4.54716 3.03756L4.37644 2.91553L4.20572 3.03756C4.18363 3.05337 4.15413 3.03193 4.16231 3.00603L4.22559 2.80596L4.05681 2.68131C4.03497 2.66518 4.04622 2.63049 4.07341 2.63028L4.28322 2.62865L4.34959 2.42959C4.35825 2.40384 4.39469 2.40384 4.40328 2.42962Z" fill="#F5F5F5"/>
<path d="M4.40325 4.27184L4.46963 4.4709L4.67944 4.47252C4.7066 4.47274 4.71788 4.5074 4.696 4.52356L4.52722 4.64821L4.5905 4.84827C4.59869 4.87418 4.56922 4.89558 4.5471 4.8798L4.37638 4.7578L4.20566 4.8798C4.18357 4.89558 4.15407 4.87418 4.16225 4.84827L4.22554 4.64821L4.05675 4.52356C4.03491 4.50743 4.04616 4.47274 4.07335 4.47252L4.28316 4.4709L4.34954 4.27184C4.35822 4.24606 4.39466 4.24606 4.40325 4.27184Z" fill="#F5F5F5"/>
<path d="M4.40325 5.96385L4.46963 6.16292L4.67944 6.16454C4.7066 6.16476 4.71788 6.19942 4.696 6.21557L4.52722 6.34023L4.5905 6.54029C4.59869 6.5662 4.56922 6.5876 4.5471 6.57182L4.37638 6.44979L4.20566 6.57182C4.18357 6.5876 4.15407 6.5662 4.16225 6.54029L4.22554 6.34023L4.05675 6.21557C4.03491 6.19945 4.04616 6.16476 4.07335 6.16454L4.28316 6.16292L4.34954 5.96385C4.35822 5.93807 4.39466 5.93807 4.40325 5.96385Z" fill="#F5F5F5"/>
<path d="M4.40325 7.50377L4.46963 7.70283L4.67944 7.70446C4.7066 7.70468 4.71788 7.73933 4.696 7.75549L4.52722 7.88014L4.5905 8.08021C4.59869 8.10611 4.56922 8.12752 4.5471 8.11174L4.37638 7.98974L4.20566 8.11174C4.18357 8.12752 4.15407 8.10611 4.16225 8.08021L4.22554 7.88014L4.05675 7.75549C4.03491 7.73936 4.04616 7.70468 4.07335 7.70446L4.28316 7.70283L4.34954 7.50377C4.35822 7.47799 4.39466 7.47799 4.40325 7.50377Z" fill="#F5F5F5"/>
<path d="M5.2117 1.55571L5.27807 1.75478L5.48788 1.7564C5.51504 1.75662 5.52632 1.79128 5.50445 1.8074L5.33563 1.93206L5.39891 2.13212C5.4071 2.15803 5.3776 2.17946 5.35551 2.16365L5.18479 2.04162L5.01407 2.16365C4.99198 2.17946 4.96248 2.15803 4.97067 2.13212L5.03395 1.93206L4.86517 1.8074C4.84332 1.79128 4.85457 1.75659 4.88173 1.7564L5.09154 1.75478L5.15791 1.55571C5.16666 1.52993 5.2031 1.52993 5.2117 1.55571Z" fill="#F5F5F5"/>
<path d="M5.2117 3.39714L5.27807 3.59621L5.48788 3.59783C5.51504 3.59805 5.52632 3.63271 5.50445 3.64886L5.33563 3.77352L5.39891 3.97358C5.4071 3.99949 5.3776 4.02093 5.35551 4.00511L5.18479 3.88308L5.01407 4.00511C4.99198 4.02093 4.96248 3.99949 4.97067 3.97358L5.03395 3.77352L4.86517 3.64886C4.84332 3.63274 4.85457 3.59805 4.88173 3.59783L5.09154 3.59621L5.15791 3.39714C5.16666 3.37136 5.2031 3.37136 5.2117 3.39714Z" fill="#F5F5F5"/>
<path d="M5.2117 5.14675L5.27807 5.34582L5.48788 5.34744C5.51504 5.34766 5.52632 5.38232 5.50445 5.39847L5.33563 5.52313L5.39891 5.72319C5.4071 5.7491 5.3776 5.77051 5.35551 5.75473L5.18479 5.63269L5.01407 5.75473C4.99198 5.77054 4.96248 5.7491 4.97067 5.72319L5.03395 5.52313L4.86517 5.39847C4.84332 5.38235 4.85457 5.34766 4.88173 5.34744L5.09154 5.34582L5.15791 5.14675C5.16666 5.121 5.2031 5.121 5.2117 5.14675Z" fill="#F5F5F5"/>
<path d="M5.2117 6.71807L5.27807 6.91713L5.48788 6.91875C5.51504 6.91897 5.52632 6.95363 5.50445 6.96978L5.33563 7.09444L5.39891 7.2945C5.4071 7.32041 5.3776 7.34184 5.35551 7.32603L5.18479 7.20403L5.01407 7.32603C4.99198 7.34184 4.96248 7.32041 4.97067 7.2945L5.03395 7.09444L4.86517 6.96978C4.84332 6.95366 4.85457 6.91897 4.88173 6.91875L5.09154 6.91713L5.15791 6.71807C5.16666 6.69229 5.2031 6.69229 5.2117 6.71807Z" fill="#F5F5F5"/>
<path d="M6.01971 0.769313L6.08609 0.968375L6.2959 0.97C6.32306 0.970219 6.33434 1.00488 6.31246 1.021L6.14365 1.14566L6.20693 1.34572C6.21512 1.37163 6.18562 1.39303 6.16352 1.37725L5.9928 1.25522L5.82209 1.37725C5.79999 1.39306 5.77049 1.37163 5.77868 1.34572L5.84196 1.14566L5.67315 1.021C5.6513 1.00488 5.66255 0.970188 5.68974 0.97L5.89955 0.968375L5.96593 0.769313C5.97468 0.743563 6.01112 0.743563 6.01971 0.769313Z" fill="#F5F5F5"/>
<path d="M6.01971 2.42949L6.08609 2.62856L6.2959 2.63018C6.32306 2.6304 6.33434 2.66506 6.31246 2.68121L6.14365 2.80587L6.20693 3.00593C6.21512 3.03184 6.18562 3.05324 6.16352 3.03746L5.9928 2.91543L5.82209 3.03746C5.79999 3.05327 5.77049 3.03184 5.77868 3.00593L5.84196 2.80587L5.67315 2.68121C5.6513 2.66509 5.66255 2.6304 5.68974 2.63018L5.89955 2.62856L5.96593 2.42949C5.97468 2.40371 6.01112 2.40371 6.01971 2.42949Z" fill="#F5F5F5"/>
<path d="M6.01971 4.27184L6.08609 4.4709L6.2959 4.47252C6.32306 4.47274 6.33434 4.5074 6.31246 4.52356L6.14365 4.64821L6.20693 4.84827C6.21512 4.87418 6.18562 4.89558 6.16352 4.8798L5.9928 4.7578L5.82209 4.8798C5.79999 4.89558 5.77049 4.87418 5.77868 4.84827L5.84196 4.64821L5.67315 4.52356C5.6513 4.50743 5.66255 4.47274 5.68974 4.47252L5.89955 4.4709L5.96593 4.27184C5.97468 4.24606 6.01112 4.24606 6.01971 4.27184Z" fill="#F5F5F5"/>
<path d="M6.01971 5.96385L6.08609 6.16292L6.2959 6.16454C6.32306 6.16476 6.33434 6.19942 6.31246 6.21557L6.14365 6.34023L6.20693 6.54029C6.21512 6.5662 6.18562 6.5876 6.16352 6.57182L5.9928 6.44979L5.82209 6.57182C5.79999 6.5876 5.77049 6.5662 5.77868 6.54029L5.84196 6.34023L5.67315 6.21557C5.6513 6.19945 5.66255 6.16476 5.68974 6.16454L5.89955 6.16292L5.96593 5.96385C5.97468 5.93807 6.01112 5.93807 6.01971 5.96385Z" fill="#F5F5F5"/>
<path d="M6.01971 7.50377L6.08609 7.70283L6.2959 7.70446C6.32306 7.70468 6.33434 7.73933 6.31246 7.75549L6.14365 7.88014L6.20693 8.08021C6.21512 8.10611 6.18562 8.12752 6.16352 8.11174L5.9928 7.98974L5.82209 8.11174C5.79999 8.12752 5.77049 8.10611 5.77868 8.08021L5.84196 7.88014L5.67315 7.75549C5.6513 7.73936 5.66255 7.70468 5.68974 7.70446L5.89955 7.70283L5.96593 7.50377C5.97468 7.47799 6.01112 7.47799 6.01971 7.50377Z" fill="#F5F5F5"/>
<path d="M6.82803 1.55571L6.8944 1.75478L7.10425 1.7564C7.1314 1.75662 7.14269 1.79128 7.12081 1.8074L6.952 1.93206L7.01528 2.13212C7.02347 2.15803 6.99397 2.17946 6.97187 2.16365L6.80115 2.04162L6.63044 2.16365C6.60834 2.17946 6.57884 2.15803 6.58703 2.13212L6.65031 1.93206L6.4815 1.8074C6.45965 1.79128 6.4709 1.75659 6.49806 1.7564L6.7079 1.75478L6.77428 1.55571C6.783 1.52993 6.81944 1.52993 6.82803 1.55571Z" fill="#F5F5F5"/>
<path d="M6.82803 3.39714L6.8944 3.59621L7.10425 3.59783C7.1314 3.59805 7.14269 3.63271 7.12081 3.64886L6.952 3.77352L7.01528 3.97358C7.02347 3.99949 6.99397 4.02093 6.97187 4.00511L6.80115 3.88308L6.63044 4.00511C6.60834 4.02093 6.57884 3.99949 6.58703 3.97358L6.65031 3.77352L6.4815 3.64886C6.45965 3.63274 6.4709 3.59805 6.49806 3.59783L6.7079 3.59621L6.77428 3.39714C6.783 3.37136 6.81944 3.37136 6.82803 3.39714Z" fill="#F5F5F5"/>
<path d="M6.82803 5.14675L6.8944 5.34582L7.10425 5.34744C7.1314 5.34766 7.14269 5.38232 7.12081 5.39847L6.952 5.52313L7.01528 5.72319C7.02347 5.7491 6.99397 5.77051 6.97187 5.75473L6.80115 5.63269L6.63044 5.75473C6.60834 5.77054 6.57884 5.7491 6.58703 5.72319L6.65031 5.52313L6.4815 5.39847C6.45965 5.38235 6.4709 5.34766 6.49806 5.34744L6.7079 5.34582L6.77428 5.14675C6.783 5.121 6.81944 5.121 6.82803 5.14675Z" fill="#F5F5F5"/>
<path d="M6.82803 6.71807L6.8944 6.91713L7.10425 6.91875C7.1314 6.91897 7.14269 6.95363 7.12081 6.96978L6.952 7.09444L7.01528 7.2945C7.02347 7.32041 6.99397 7.34184 6.97187 7.32603L6.80115 7.20403L6.63044 7.32603C6.60834 7.34184 6.57884 7.32041 6.58703 7.2945L6.65031 7.09444L6.4815 6.96978C6.45965 6.95366 6.4709 6.91897 6.49806 6.91875L6.7079 6.91713L6.77428 6.71807C6.783 6.69229 6.81944 6.69229 6.82803 6.71807Z" fill="#F5F5F5"/>
<path d="M7.63607 0.769313L7.70245 0.968375L7.91226 0.97C7.93942 0.970219 7.9507 1.00488 7.92886 1.021L7.76004 1.14566L7.82333 1.34572C7.83151 1.37163 7.80201 1.39303 7.77992 1.37725L7.6092 1.25522L7.43848 1.37725C7.41639 1.39306 7.38689 1.37163 7.39507 1.34572L7.45836 1.14566L7.28954 1.021C7.2677 1.00488 7.27895 0.970188 7.30611 0.97L7.51592 0.968375L7.58229 0.769313C7.59104 0.743563 7.62748 0.743563 7.63607 0.769313Z" fill="#F5F5F5"/>
<path d="M7.63607 2.42949L7.70245 2.62856L7.91226 2.63018C7.93942 2.6304 7.9507 2.66506 7.92886 2.68121L7.76004 2.80587L7.82333 3.00593C7.83151 3.03184 7.80201 3.05324 7.77992 3.03746L7.6092 2.91543L7.43848 3.03746C7.41639 3.05327 7.38689 3.03184 7.39507 3.00593L7.45836 2.80587L7.28954 2.68121C7.2677 2.66509 7.27895 2.6304 7.30611 2.63018L7.51592 2.62856L7.58229 2.42949C7.59104 2.40371 7.62748 2.40371 7.63607 2.42949Z" fill="#F5F5F5"/>
<path d="M7.63607 4.27184L7.70245 4.4709L7.91226 4.47252C7.93942 4.47274 7.9507 4.5074 7.92886 4.52356L7.76004 4.64821L7.82333 4.84827C7.83151 4.87418 7.80201 4.89558 7.77992 4.8798L7.6092 4.7578L7.43848 4.8798C7.41639 4.89558 7.38689 4.87418 7.39507 4.84827L7.45836 4.64821L7.28954 4.52356C7.2677 4.50743 7.27895 4.47274 7.30611 4.47252L7.51592 4.4709L7.58229 4.27184C7.59104 4.24606 7.62748 4.24606 7.63607 4.27184Z" fill="#F5F5F5"/>
<path d="M7.63607 5.96385L7.70245 6.16292L7.91226 6.16454C7.93942 6.16476 7.9507 6.19942 7.92886 6.21557L7.76004 6.34023L7.82333 6.54029C7.83151 6.5662 7.80201 6.5876 7.77992 6.57182L7.6092 6.44979L7.43848 6.57182C7.41639 6.5876 7.38689 6.5662 7.39507 6.54029L7.45836 6.34023L7.28954 6.21557C7.2677 6.19945 7.27895 6.16476 7.30611 6.16454L7.51592 6.16292L7.58229 5.96385C7.59104 5.93807 7.62748 5.93807 7.63607 5.96385Z" fill="#F5F5F5"/>
<path d="M7.63607 7.50377L7.70245 7.70283L7.91226 7.70446C7.93942 7.70468 7.9507 7.73933 7.92886 7.75549L7.76004 7.88014L7.82333 8.08021C7.83151 8.10611 7.80201 8.12752 7.77992 8.11174L7.6092 7.98974L7.43848 8.11174C7.41639 8.12752 7.38689 8.10611 7.39507 8.08021L7.45836 7.88014L7.28954 7.75549C7.2677 7.73936 7.27895 7.70468 7.30611 7.70446L7.51592 7.70283L7.58229 7.50377C7.59104 7.47799 7.62748 7.47799 7.63607 7.50377Z" fill="#F5F5F5"/>
</svg>
